<?xml version="1.0" encoding="UTF-8" standalone="no" ?>
<!DOCTYPE svg PUBLIC "-//W3C//DTD SVG 1.1//EN" "http://www.w3.org/Graphics/SVG/1.1/DTD/svg11.dtd">
<svg xmlns="http://www.w3.org/2000/svg" xmlns:xlink="http://www.w3.org/1999/xlink" version="1.1" width="1080" height="400" viewBox="0 0 1080 400" xml:space="preserve">
<desc>Created with Fabric.js 5.2.4</desc>
<defs>
</defs>
<g transform="matrix(1 0 0 1 540 200)" id="e37837e4-604c-4e60-abe7-ddc48d2ac9f1"  >
<rect style="stroke: none; stroke-width: 1; stroke-dasharray: none; stroke-linecap: butt; stroke-dashoffset: 0; stroke-linejoin: miter; stroke-miterlimit: 4; fill: rgb(255,255,255); fill-rule: nonzero; opacity: 1; visibility: hidden;" vector-effect="non-scaling-stroke"  x="-540" y="-200" rx="0" ry="0" width="1080" height="400" />
</g>
<g transform="matrix(Infinity NaN NaN Infinity 0 0)" id="a14c0e92-b0cf-47c2-8548-a483559129e1"  >
</g>
<g transform="matrix(1.58 0 0 1.58 540 200)"  >
<g style="" vector-effect="non-scaling-stroke"   >
		<g transform="matrix(1 0 0 1 -293.92 -64.5)"  >
<path style="stroke: none; stroke-width: 1; stroke-dasharray: none; stroke-linecap: butt; stroke-dashoffset: 0; stroke-linejoin: miter; stroke-miterlimit: 4; fill: rgb(242,0,231); fill-rule: nonzero; opacity: 1;" vector-effect="non-scaling-stroke"  transform=" translate(-123.64, -263.68)" d="M 124.61 297.03 C 127.17999999999999 297.03 129.4 296.83 131.3 296.44 C 133.19 296.04 134.81 295.54 136.16000000000003 294.93 C 137.51000000000002 294.32 138.66000000000003 293.66 139.59000000000003 292.94 C 140.52000000000004 292.21999999999997 141.36000000000004 291.55 142.11000000000004 290.94 C 142.86000000000004 290.33 143.56000000000003 289.83 144.21000000000004 289.44 C 144.86000000000004 289.04 145.56000000000003 288.84 146.31000000000003 288.84 C 147.06000000000003 288.84 147.67000000000004 288.96999999999997 148.16000000000003 289.22999999999996 C 148.65000000000003 289.48999999999995 149.01000000000002 289.78 149.24000000000004 290.10999999999996 L 157.22000000000003 299.69999999999993 C 152.79000000000002 304.9699999999999 147.52000000000004 308.9799999999999 141.43000000000004 311.69999999999993 C 135.34000000000003 314.42999999999995 128.42000000000004 315.79999999999995 120.68000000000004 315.79999999999995 C 114.24000000000004 315.79999999999995 108.53000000000003 314.66999999999996 103.56000000000003 312.4 C 98.59000000000003 310.14 94.40000000000003 307.02 91.00000000000003 303.06 C 87.59000000000003 299.09 85.02000000000002 294.39 83.27000000000002 288.95 C 81.52000000000002 283.51 80.65000000000002 277.65 80.65000000000002 271.34999999999997 C 80.65000000000002 265.52 81.30000000000003 259.98999999999995 82.61000000000001 254.75999999999996 C 83.92000000000002 249.52999999999997 85.76000000000002 244.69999999999996 88.14000000000001 240.26999999999995 C 90.52000000000001 235.83999999999995 93.38000000000001 231.84999999999997 96.71000000000001 228.29999999999995 C 100.05000000000001 224.74999999999994 103.75000000000001 221.73999999999995 107.81 219.26999999999995 C 111.87 216.79999999999995 116.23 214.88999999999996 120.9 213.55999999999995 C 125.57000000000001 212.22999999999993 130.44 211.56999999999994 135.53 211.56999999999994 C 139.36 211.56999999999994 142.84 211.92999999999995 146 212.64999999999995 C 149.15 213.36999999999995 152 214.37999999999994 154.54 215.65999999999994 C 157.07999999999998 216.93999999999994 159.35999999999999 218.46999999999994 161.37 220.23999999999995 C 163.38 222.00999999999996 165.13 223.96999999999994 166.62 226.11999999999995 L 158.64000000000001 235.35999999999996 C 158.08 236.00999999999996 157.43 236.59999999999997 156.68 237.10999999999996 C 155.93 237.61999999999995 154.95000000000002 237.87999999999997 153.74 237.87999999999997 C 152.95000000000002 237.87999999999997 152.22 237.68999999999997 151.57000000000002 237.31999999999996 C 150.92000000000002 236.94999999999996 150.25000000000003 236.48999999999995 149.57000000000002 235.95999999999995 C 148.89000000000001 235.41999999999996 148.13000000000002 234.82999999999996 147.3 234.16999999999996 C 146.46 233.51999999999995 145.46 232.91999999999996 144.29000000000002 232.37999999999997 C 143.12000000000003 231.83999999999997 141.74 231.38999999999996 140.12000000000003 231.01999999999995 C 138.51000000000002 230.64999999999995 136.61000000000004 230.45999999999995 134.41000000000003 230.45999999999995 C 130.12000000000003 230.45999999999995 126.12000000000003 231.36999999999995 122.41000000000003 233.18999999999994 C 118.70000000000002 235.00999999999993 115.48000000000002 237.60999999999993 112.75000000000003 240.99999999999994 C 110.02000000000002 244.37999999999994 107.88000000000002 248.48999999999995 106.34000000000003 253.31999999999994 C 104.80000000000004 258.1499999999999 104.03000000000003 263.54999999999995 104.03000000000003 269.5299999999999 C 104.03000000000003 273.8699999999999 104.55000000000003 277.7399999999999 105.61000000000003 281.1499999999999 C 106.66000000000003 284.55999999999995 108.09000000000003 287.43999999999994 109.91000000000003 289.7999999999999 C 111.73000000000002 292.1599999999999 113.90000000000002 293.9499999999999 116.42000000000003 295.1899999999999 C 118.94 296.41 121.67 297.03 124.61 297.03 z" stroke-linecap="round" />
</g>
		<g transform="matrix(1 0 0 1 -210.35 -64.51)"  >
<path style="stroke: none; stroke-width: 1; stroke-dasharray: none; stroke-linecap: butt; stroke-dashoffset: 0; stroke-linejoin: miter; stroke-miterlimit: 4; fill: rgb(242,0,231); fill-rule: nonzero; opacity: 1;" vector-effect="non-scaling-stroke"  transform=" translate(-207.21, -263.67)" d="M 255.09 314.67 L 237.45 314.67 C 235.48999999999998 314.67 233.91 314.21000000000004 232.72 313.3 C 231.53 312.39 230.82 311.19 230.59 309.69 L 227.44 291.35 L 192.79 291.35 L 185.23 309.69 C 184.72 311 183.70999999999998 312.15 182.22 313.16 C 180.73 314.16 179.07 314.66 177.25 314.66 L 159.32999999999998 314.66 L 208.04999999999998 212.67000000000002 L 231.42999999999998 212.67000000000002 L 255.09 314.67 z M 199.16 275.82 L 224.78 275.82 L 219.81 246.7 C 219.39000000000001 244.26999999999998 218.93 241.81 218.45 239.32 C 217.95999999999998 236.82 217.54999999999998 234.54999999999998 217.22 232.48999999999998 C 216.85 233.60999999999999 216.35999999999999 234.87999999999997 215.75 236.29999999999998 C 215.14 237.71999999999997 214.55 239.10999999999999 213.97 240.46999999999997 C 213.39 241.81999999999996 212.83 243.07999999999998 212.29 244.24999999999997 C 211.75 245.41999999999996 211.37 246.27999999999997 211.14 246.83999999999997 L 199.16 275.82 z" stroke-linecap="round" />
</g>
		<g transform="matrix(1 0 0 1 -112.56 -64.51)"  >
<path style="stroke: none; stroke-width: 1; stroke-dasharray: none; stroke-linecap: butt; stroke-dashoffset: 0; stroke-linejoin: miter; stroke-miterlimit: 4; fill: rgb(242,0,231); fill-rule: nonzero; opacity: 1;" vector-effect="non-scaling-stroke"  transform=" translate(-305, -263.67)" d="M 293.24 276.59 L 288.55 314.66999999999996 L 265.87 314.66999999999996 L 278.33 212.67999999999995 L 309.27 212.67999999999995 C 315.52 212.67999999999995 320.84999999999997 213.34999999999994 325.27 214.67999999999995 C 329.68 216.00999999999996 333.28999999999996 217.83999999999995 336.08 220.17999999999995 C 338.88 222.50999999999996 340.91999999999996 225.27999999999994 342.2 228.46999999999994 C 343.47999999999996 231.66999999999993 344.12 235.12999999999994 344.12 238.86999999999995 C 344.12 242.64999999999995 343.62 246.21999999999994 342.62 249.57999999999996 C 341.62 252.93999999999997 340.16 256.03 338.24 258.84999999999997 C 336.33 261.66999999999996 333.98 264.16999999999996 331.2 266.34 C 328.42 268.51 325.26 270.29999999999995 321.71999999999997 271.69 C 323.11999999999995 272.48 324.44 273.44 325.67999999999995 274.56 C 326.91999999999996 275.68 327.88999999999993 277.08 328.5799999999999 278.76 L 343.4199999999999 314.66999999999996 L 322.8399999999999 314.66999999999996 C 320.9299999999999 314.66999999999996 319.31999999999994 314.29999999999995 318.00999999999993 313.54999999999995 C 316.69999999999993 312.79999999999995 315.7899999999999 311.72999999999996 315.2799999999999 310.3299999999999 L 304.2199999999999 280.1599999999999 C 303.7099999999999 278.8499999999999 303.0199999999999 277.9299999999999 302.1599999999999 277.38999999999993 C 301.2999999999999 276.8499999999999 300.0299999999999 276.5799999999999 298.3499999999999 276.5799999999999 L 293.24 276.5799999999999 z M 299.05 229.69 L 295.2 260.84 L 303.53 260.84 C 306.79999999999995 260.84 309.57 260.34 311.85999999999996 259.34 C 314.15 258.34 315.99999999999994 256.98999999999995 317.41999999999996 255.31999999999996 C 318.84 253.63999999999996 319.86999999999995 251.67999999999998 320.49999999999994 249.43999999999997 C 321.12999999999994 247.19999999999996 321.44999999999993 244.83999999999997 321.44999999999993 242.36999999999998 C 321.44999999999993 240.45999999999998 321.16999999999996 238.71999999999997 320.60999999999996 237.15999999999997 C 320.04999999999995 235.59999999999997 319.16999999999996 234.26999999999998 317.98999999999995 233.16999999999996 C 316.79999999999995 232.06999999999996 315.30999999999995 231.21999999999997 313.50999999999993 230.61999999999995 C 311.7099999999999 230.00999999999993 309.5999999999999 229.70999999999995 307.17999999999995 229.70999999999995 L 299.05 229.70999999999995 z" stroke-linecap="round" />
</g>
		<g transform="matrix(1 0 0 1 -22.12 -64.5)"  >
<path style="stroke: none; stroke-width: 1; stroke-dasharray: none; stroke-linecap: butt; stroke-dashoffset: 0; stroke-linejoin: miter; stroke-miterlimit: 4; fill: rgb(242,0,231); fill-rule: nonzero; opacity: 1;" vector-effect="non-scaling-stroke"  transform=" translate(-395.44, -263.68)" d="M 434.01 212.68 L 431.63 230.74 L 405.73 230.74 L 395.37 314.67 L 372.69 314.67 L 382.91 230.74 L 356.87 230.74 L 359.11 212.68 L 434.01 212.68 z" stroke-linecap="round" />
</g>
		<g transform="matrix(1 0 0 1 77 -64.51)"  >
<path style="stroke: none; stroke-width: 1; stroke-dasharray: none; stroke-linecap: butt; stroke-dashoffset: 0; stroke-linejoin: miter; stroke-miterlimit: 4; fill: rgb(242,0,231); fill-rule: nonzero; opacity: 1;" vector-effect="non-scaling-stroke"  transform=" translate(-494.56, -263.67)" d="M 492.53 278.9 C 493.28 277.35999999999996 494.05999999999995 275.84 494.86999999999995 274.34999999999997 C 495.68999999999994 272.85999999999996 496.53999999999996 271.35999999999996 497.42999999999995 269.86999999999995 L 528.65 216.17999999999995 C 529.5799999999999 214.58999999999995 530.75 213.60999999999996 532.15 213.23999999999995 C 533.55 212.86999999999995 534.9 212.67999999999995 536.2099999999999 212.67999999999995 L 554.1299999999999 212.67999999999995 L 541.5299999999999 314.66999999999996 L 521.5099999999999 314.66999999999996 L 528.6499999999999 255.30999999999995 C 528.7899999999998 254.04999999999995 529.0099999999999 252.65999999999994 529.3199999999998 251.13999999999996 C 529.6199999999998 249.61999999999995 529.9599999999998 248.04999999999995 530.3299999999998 246.40999999999997 L 499.6699999999998 299.04999999999995 C 498.7399999999998 300.63999999999993 497.5199999999998 301.80999999999995 496.0299999999998 302.59 C 494.5399999999998 303.35999999999996 492.8999999999998 303.75 491.1299999999998 303.75 L 488.04999999999984 303.75 C 486.27999999999986 303.75 484.71999999999986 303.35 483.3899999999998 302.56 C 482.05999999999983 301.77 481.1399999999998 300.6 480.6299999999998 299.06 L 462.7099999999998 246.28 C 462.61999999999983 247.87 462.5399999999998 249.41 462.4699999999998 250.9 C 462.3999999999998 252.39000000000001 462.2899999999998 253.75 462.1499999999998 254.96 L 455.1499999999998 314.67 L 434.9899999999998 314.67 L 447.5899999999998 212.75 L 464.9499999999998 212.75 C 465.92999999999984 212.75 466.7899999999998 212.75 467.5399999999998 212.75 C 468.2899999999998 212.75 468.9499999999998 212.86 469.5399999999998 213.07 C 470.1199999999998 213.28 470.6199999999998 213.62 471.0399999999998 214.09 C 471.4599999999998 214.56 471.8099999999998 215.23 472.0899999999998 216.12 L 490.0099999999998 269.87 C 490.99 272.8 491.83 275.82 492.53 278.9 z" stroke-linecap="round" />
</g>
		<g transform="matrix(1 0 0 1 182.92 -64.51)"  >
<path style="stroke: none; stroke-width: 1; stroke-dasharray: none; stroke-linecap: butt; stroke-dashoffset: 0; stroke-linejoin: miter; stroke-miterlimit: 4; fill: rgb(242,0,231); fill-rule: nonzero; opacity: 1;" vector-effect="non-scaling-stroke"  transform=" translate(-600.47, -263.67)" d="M 648.35 314.67 L 630.71 314.67 C 628.75 314.67 627.1700000000001 314.21000000000004 625.98 313.3 C 624.79 312.39 624.08 311.19 623.85 309.69 L 620.7 291.35 L 586.0500000000001 291.35 L 578.4900000000001 309.69 C 577.9800000000001 311 576.9700000000001 312.15 575.4800000000001 313.16 C 573.9900000000001 314.16 572.3300000000002 314.66 570.5100000000001 314.66 L 552.5900000000001 314.66 L 601.3100000000002 212.67000000000002 L 624.6900000000002 212.67000000000002 L 648.35 314.67 z M 592.42 275.82 L 618.04 275.82 L 613.0699999999999 246.7 C 612.65 244.26999999999998 612.1899999999999 241.81 611.7099999999999 239.32 C 611.2199999999999 236.82 610.81 234.54999999999998 610.4799999999999 232.48999999999998 C 610.1099999999999 233.60999999999999 609.6199999999999 234.87999999999997 609.0099999999999 236.29999999999998 C 608.3999999999999 237.71999999999997 607.8099999999998 239.10999999999999 607.2199999999999 240.46999999999997 C 606.6399999999999 241.81999999999996 606.0799999999999 243.07999999999998 605.54 244.24999999999997 C 605 245.41999999999996 604.62 246.27999999999997 604.38 246.83999999999997 L 592.42 275.82 z" stroke-linecap="round" />
</g>
		<g transform="matrix(1 0 0 1 289.23 -64.51)"  >
<path style="stroke: none; stroke-width: 1; stroke-dasharray: none; stroke-linecap: butt; stroke-dashoffset: 0; stroke-linejoin: miter; stroke-miterlimit: 4; fill: rgb(242,0,231); fill-rule: nonzero; opacity: 1;" vector-effect="non-scaling-stroke"  transform=" translate(-706.79, -263.67)" d="M 686.25 212.78 C 686.93 212.85 687.53 213.01 688.07 213.27 C 688.61 213.53 689.08 213.89000000000001 689.5 214.35000000000002 C 689.92 214.82000000000002 690.34 215.42000000000002 690.76 216.17000000000002 L 726.53 279.17 C 726.62 277.54 726.76 275.97 726.9499999999999 274.48 C 727.14 272.99 727.3 271.59000000000003 727.4399999999999 270.28000000000003 L 734.3 212.67000000000002 L 754.4599999999999 212.67000000000002 L 741.8599999999999 314.66 L 729.9599999999999 314.66 C 728.1899999999999 314.66 726.7199999999999 314.40000000000003 725.55 313.89000000000004 C 724.38 313.38000000000005 723.38 312.37000000000006 722.54 310.88000000000005 L 686.91 247.95000000000005 C 686.8199999999999 249.26000000000005 686.7099999999999 250.52000000000004 686.6 251.73000000000005 C 686.48 252.94000000000005 686.38 254.09000000000006 686.28 255.16000000000005 L 679.28 314.6600000000001 L 659.12 314.6600000000001 L 671.72 212.67000000000007 L 683.76 212.67000000000007 C 684.75 212.68 685.57 212.71 686.25 212.78 z" stroke-linecap="round" />
</g>
		<g transform="matrix(1 0 0 1 54.36 59.19)"  >
<path style="stroke: none; stroke-width: 1; stroke-dasharray: none; stroke-linecap: butt; stroke-dashoffset: 0; stroke-linejoin: miter; stroke-miterlimit: 4; fill: rgb(35,31,32); fill-rule: nonzero; opacity: 1;" vector-effect="non-scaling-stroke"  transform=" translate(-471.91, -387.38)" d="M 483.17 425.67 C 481.94 425.67 481.11 425.35 480.68 424.72 C 480.24 424.09000000000003 480.02 423.32000000000005 480.02 422.41 L 481.02 411.33000000000004 C 479.69 413.61 478.24 415.67 476.65999999999997 417.53000000000003 C 475.08 419.39000000000004 473.42999999999995 420.97 471.7 422.28000000000003 C 469.97 423.59000000000003 468.15999999999997 424.61 466.28999999999996 425.32000000000005 C 464.41999999999996 426.0300000000001 462.52 426.40000000000003 460.59 426.40000000000003 C 456.03999999999996 426.40000000000003 452.51 424.75000000000006 450.01 421.44000000000005 C 447.51 418.13000000000005 446.26 413.33000000000004 446.26 407.03000000000003 C 446.26 404.16 446.56 401.29 447.15 398.42 C 447.73999999999995 395.55 448.59 392.8 449.7 390.18 C 450.81 387.56 452.13 385.11 453.69 382.86 C 455.25 380.6 456.98 378.65000000000003 458.89 377.01 C 460.8 375.37 462.87 374.07 465.11 373.13 C 467.35 372.18 469.69 371.71 472.15000000000003 371.71 C 474.74 371.71 477.11 372.21999999999997 479.26000000000005 373.22999999999996 C 481.41 374.23999999999995 483.24000000000007 375.7 484.75000000000006 377.59 L 488.37000000000006 348.34999999999997 L 497.56000000000006 348.34999999999997 L 488 425.67 L 483.17 425.67 z M 464.11 418.9 C 465.79 418.9 467.48 418.38 469.18 417.34999999999997 C 470.88 416.32 472.52 414.87999999999994 474.12 413.03999999999996 C 475.71 411.2 477.2 409.02 478.58 406.47999999999996 C 479.96 403.93999999999994 481.15999999999997 401.16999999999996 482.18 398.15999999999997 L 483.91 384.09 C 482.58000000000004 382.23999999999995 480.99 380.91999999999996 479.13000000000005 380.15 C 477.27000000000004 379.38 475.40000000000003 378.98999999999995 473.51000000000005 378.98999999999995 C 470.75000000000006 378.98999999999995 468.25000000000006 379.80999999999995 466.03000000000003 381.46 C 463.81 383.10999999999996 461.92 385.22999999999996 460.36 387.84 C 458.8 390.45 457.6 393.35999999999996 456.76 396.58 C 455.92 399.8 455.5 402.96999999999997 455.5 406.08 C 455.5 410.25 456.25 413.41999999999996 457.76 415.60999999999996 C 459.27 417.79999999999995 461.38 418.9 464.11 418.9 z" stroke-linecap="round" />
</g>
		<g transform="matrix(1 0 0 1 100.1 59.19)"  >
<path style="stroke: none; stroke-width: 1; stroke-dasharray: none; stroke-linecap: butt; stroke-dashoffset: 0; stroke-linejoin: miter; stroke-miterlimit: 4; fill: rgb(35,31,32); fill-rule: nonzero; opacity: 1;" vector-effect="non-scaling-stroke"  transform=" translate(-517.66, -387.37)" d="M 523.7 372.49 L 517.2900000000001 425.67 L 508.1000000000001 425.67 L 514.5100000000001 372.49 L 523.7 372.49 z M 527.21 355.79 C 527.21 356.70000000000005 527.0300000000001 357.55 526.6600000000001 358.34000000000003 C 526.2900000000001 359.13000000000005 525.8000000000001 359.83000000000004 525.19 360.44000000000005 C 524.58 361.05000000000007 523.8900000000001 361.53000000000003 523.12 361.88000000000005 C 522.35 362.2300000000001 521.55 362.41 520.7 362.41 C 519.8900000000001 362.41 519.11 362.24 518.34 361.88000000000005 C 517.57 361.53000000000003 516.9 361.05000000000007 516.32 360.44000000000005 C 515.74 359.83000000000004 515.2800000000001 359.13000000000005 514.9300000000001 358.34000000000003 C 514.58 357.55 514.4000000000001 356.70000000000005 514.4000000000001 355.79 C 514.4000000000001 354.88 514.57 354.02000000000004 514.9300000000001 353.22 C 515.2800000000001 352.42 515.7500000000001 351.71000000000004 516.35 351.09000000000003 C 516.94 350.48 517.63 349.99 518.4 349.62 C 519.17 349.25 519.9599999999999 349.07 520.76 349.07 C 521.6 349.07 522.4 349.25 523.18 349.59999999999997 C 523.9499999999999 349.95 524.64 350.42999999999995 525.25 351.03999999999996 C 525.86 351.65 526.34 352.36999999999995 526.69 353.18999999999994 C 527.04 354.01 527.21 354.88 527.21 355.79 z" stroke-linecap="round" />
</g>
		<g transform="matrix(1 0 0 1 139.28 80.09)"  >
<path style="stroke: none; stroke-width: 1; stroke-dasharray: none; stroke-linecap: butt; stroke-dashoffset: 0; stroke-linejoin: miter; stroke-miterlimit: 4; fill: rgb(35,31,32); fill-rule: nonzero; opacity: 1;" vector-effect="non-scaling-stroke"  transform=" translate(-556.83, -408.27)" d="M 575.93 387.24 C 575.89 388.99 575.68 390.57 575.27 391.97 C 574.87 393.37 574.37 394.67 573.77 395.85 C 573.17 397.04 572.53 398.16 571.8299999999999 399.21000000000004 C 571.1299999999999 400.26000000000005 570.4799999999999 401.31000000000006 569.8899999999999 402.36 C 569.2899999999998 403.41 568.7999999999998 404.49 568.3899999999999 405.59000000000003 C 567.9799999999999 406.69000000000005 567.7899999999998 407.89000000000004 567.7899999999998 409.19000000000005 C 567.7899999999998 410.6600000000001 568.1499999999999 411.99000000000007 568.8699999999999 413.18000000000006 C 569.5899999999999 414.37000000000006 570.3699999999999 415.6000000000001 571.2299999999999 416.8500000000001 C 572.0899999999999 418.1000000000001 572.8799999999999 419.4800000000001 573.5899999999999 420.9700000000001 C 574.31 422.4600000000001 574.67 424.2200000000001 574.67 426.25000000000006 C 574.67 428.7300000000001 574.0899999999999 431.09000000000003 572.9399999999999 433.31000000000006 C 571.78 435.5300000000001 570.14 437.50000000000006 567.9999999999999 439.2200000000001 C 565.8699999999999 440.93000000000006 563.2699999999999 442.2900000000001 560.1999999999999 443.2900000000001 C 557.14 444.2900000000001 553.6999999999999 444.7900000000001 549.8799999999999 444.7900000000001 C 546.8399999999999 444.7900000000001 544.0599999999998 444.4800000000001 541.5599999999998 443.8500000000001 C 539.0599999999998 443.2200000000001 536.9199999999998 442.3300000000001 535.1499999999999 441.1700000000001 C 533.3799999999999 440.01000000000005 532.0199999999999 438.62000000000006 531.0599999999998 437.00000000000006 C 530.0999999999998 435.37000000000006 529.6199999999998 433.58000000000004 529.6199999999998 431.62000000000006 C 529.6199999999998 428.8500000000001 530.3399999999998 426.4700000000001 531.7699999999998 424.4800000000001 C 533.1999999999997 422.49000000000007 535.0899999999998 420.8400000000001 537.4399999999997 419.55000000000007 C 539.7799999999997 418.26000000000005 542.4499999999997 417.31000000000006 545.4499999999997 416.7200000000001 C 548.4399999999997 416.1300000000001 551.4999999999997 415.8300000000001 554.6099999999997 415.8300000000001 C 555.8699999999997 415.8300000000001 557.1199999999997 415.8800000000001 558.3599999999997 415.9900000000001 C 559.5999999999997 416.10000000000014 560.8399999999997 416.2400000000001 562.0599999999997 416.41000000000014 C 561.7499999999998 415.7500000000001 561.4899999999997 415.0500000000001 561.2999999999997 414.34000000000015 C 561.1099999999997 413.6200000000001 561.0099999999998 412.84000000000015 561.0099999999998 412.00000000000017 C 561.0099999999998 410.9200000000002 561.1799999999997 409.7900000000002 561.5099999999998 408.64000000000016 C 561.8399999999998 407.48000000000013 562.3899999999998 406.19000000000017 563.1599999999997 404.76000000000016 C 561.8299999999997 405.6700000000002 560.3399999999997 406.3700000000002 558.6999999999997 406.8600000000002 C 557.0499999999997 407.3500000000002 555.1799999999997 407.6000000000002 553.0799999999997 407.6000000000002 C 551.0499999999997 407.6000000000002 549.1499999999997 407.2700000000002 547.3799999999997 406.6000000000002 C 545.6099999999997 405.94000000000017 544.0599999999996 404.9600000000002 542.7299999999997 403.6600000000002 C 541.3999999999996 402.3700000000002 540.3499999999997 400.75000000000017 539.5799999999997 398.8000000000002 C 538.8099999999997 396.8600000000002 538.4199999999997 394.5900000000002 538.4199999999997 392.00000000000017 C 538.4199999999997 389.4800000000002 538.8799999999998 387.00000000000017 539.8099999999997 384.57000000000016 C 540.7399999999997 382.14000000000016 542.0899999999997 379.97000000000014 543.8799999999998 378.0600000000002 C 545.6699999999998 376.1500000000002 547.8699999999998 374.6200000000002 550.4999999999998 373.4700000000002 C 553.1199999999998 372.3100000000002 556.1499999999997 371.7400000000002 559.5799999999998 371.7400000000002 C 563.4299999999998 371.7400000000002 566.7699999999999 372.6500000000002 569.6099999999998 374.4700000000002 L 584.0499999999998 374.4700000000002 L 583.6299999999999 377.5700000000002 C 583.5599999999998 378.17000000000024 583.3599999999999 378.7100000000002 583.0299999999999 379.2000000000002 C 582.6999999999998 379.6900000000002 582.1999999999998 379.99000000000024 581.5299999999999 380.0900000000002 L 574.9099999999999 381.2500000000002 C 575.2299999999999 382.16000000000025 575.4699999999998 383.11000000000024 575.6499999999999 384.11000000000024 C 575.85 385.06 575.93 386.12 575.93 387.24 z M 566.17 426.98 C 566.17 426.07 566.0799999999999 425.22 565.91 424.43 C 565.73 423.64 565.51 422.90000000000003 565.23 422.2 C 563.34 421.88 561.5600000000001 421.65999999999997 559.9 421.52 C 558.2399999999999 421.38 556.67 421.31 555.1999999999999 421.31 C 552.3299999999999 421.31 549.8399999999999 421.56 547.7399999999999 422.07 C 545.6399999999999 422.58 543.9099999999999 423.25 542.5399999999998 424.09 C 541.1699999999998 424.92999999999995 540.1599999999999 425.9 539.4899999999999 427 C 538.8199999999999 428.1 538.4899999999999 429.25 538.4899999999999 430.44 C 538.4899999999999 432.96 539.5499999999998 434.88 541.6699999999998 436.21999999999997 C 543.7899999999998 437.54999999999995 546.7899999999998 438.21 550.6699999999998 438.21 C 552.9799999999998 438.21 555.0899999999998 437.9 556.9999999999999 437.28999999999996 C 558.9099999999999 436.67999999999995 560.5399999999998 435.85999999999996 561.8799999999999 434.84999999999997 C 563.2299999999999 433.83 564.2799999999999 432.64 565.0299999999999 431.28 C 565.79 429.92 566.17 428.48 566.17 426.98 z M 555.67 401.67 C 557.56 401.67 559.2199999999999 401.26 560.66 400.44 C 562.0899999999999 399.62 563.31 398.53 564.31 397.19 C 565.31 395.84 566.0699999999999 394.33 566.5899999999999 392.65 C 567.1099999999999 390.96999999999997 567.3799999999999 389.27 567.3799999999999 387.56 C 567.3799999999999 384.48 566.5999999999999 382.15 565.0399999999998 380.58 C 563.4799999999999 379 561.3399999999998 378.21999999999997 558.6099999999999 378.21999999999997 C 556.7199999999999 378.21999999999997 555.06 378.60999999999996 553.6199999999999 379.36999999999995 C 552.1799999999998 380.13999999999993 550.9799999999999 381.16999999999996 549.9999999999999 382.46999999999997 C 549.0199999999999 383.77 548.2799999999999 385.23999999999995 547.7699999999999 386.88 C 547.2599999999999 388.53 547.0099999999999 390.24 547.0099999999999 392.03 C 547.0099999999999 395.17999999999995 547.7699999999999 397.58 549.2899999999998 399.21999999999997 C 550.81 400.85 552.94 401.67 555.67 401.67 z" stroke-linecap="round" />
</g>
		<g transform="matrix(1 0 0 1 183.26 59.19)"  >
<path style="stroke: none; stroke-width: 1; stroke-dasharray: none; stroke-linecap: butt; stroke-dashoffset: 0; stroke-linejoin: miter; stroke-miterlimit: 4; fill: rgb(35,31,32); fill-rule: nonzero; opacity: 1;" vector-effect="non-scaling-stroke"  transform=" translate(-600.82, -387.37)" d="M 606.86 372.49 L 600.45 425.67 L 591.26 425.67 L 597.67 372.49 L 606.86 372.49 z M 610.37 355.79 C 610.37 356.70000000000005 610.19 357.55 609.82 358.34000000000003 C 609.45 359.13000000000005 608.96 359.83000000000004 608.35 360.44000000000005 C 607.74 361.05000000000007 607.0500000000001 361.53000000000003 606.28 361.88000000000005 C 605.51 362.2300000000001 604.7099999999999 362.41 603.86 362.41 C 603.0500000000001 362.41 602.27 362.24 601.5 361.88000000000005 C 600.73 361.53000000000003 600.06 361.05000000000007 599.48 360.44000000000005 C 598.9 359.83000000000004 598.44 359.13000000000005 598.09 358.34000000000003 C 597.74 357.55 597.5600000000001 356.70000000000005 597.5600000000001 355.79 C 597.5600000000001 354.88 597.73 354.02000000000004 598.09 353.22 C 598.44 352.42 598.9100000000001 351.71000000000004 599.51 351.09000000000003 C 600.1 350.48 600.79 349.99 601.56 349.62 C 602.3299999999999 349.25 603.1199999999999 349.07 603.92 349.07 C 604.76 349.07 605.56 349.25 606.3399999999999 349.59999999999997 C 607.1099999999999 349.95 607.8 350.42999999999995 608.41 351.03999999999996 C 609.02 351.65 609.5 352.36999999999995 609.85 353.18999999999994 C 610.2 354.01 610.37 354.88 610.37 355.79 z" stroke-linecap="round" />
</g>
		<g transform="matrix(1 0 0 1 219.4 62.68)"  >
<path style="stroke: none; stroke-width: 1; stroke-dasharray: none; stroke-linecap: butt; stroke-dashoffset: 0; stroke-linejoin: miter; stroke-miterlimit: 4; fill: rgb(35,31,32); fill-rule: nonzero; opacity: 1;" vector-effect="non-scaling-stroke"  transform=" translate(-636.95, -390.86)" d="M 624.6 415.64 C 624.6 415.43 624.61 415.15999999999997 624.63 414.83 C 624.65 414.5 624.68 414.02 624.74 413.39 C 624.8000000000001 412.76 624.87 411.94 624.98 410.91999999999996 C 625.08 409.90999999999997 625.24 408.58 625.45 406.92999999999995 L 628.76 380.30999999999995 L 622.83 380.30999999999995 C 622.37 380.30999999999995 622 380.17999999999995 621.7 379.91999999999996 C 621.4000000000001 379.65999999999997 621.25 379.24999999999994 621.25 378.68999999999994 C 621.25 378.5799999999999 621.27 378.36999999999995 621.3 378.05999999999995 C 621.3299999999999 377.74999999999994 621.38 377.38999999999993 621.43 376.97999999999996 C 621.4799999999999 376.58 621.54 376.16999999999996 621.5899999999999 375.74999999999994 C 621.6399999999999 375.3299999999999 621.6899999999999 374.92999999999995 621.7199999999999 374.53999999999996 L 629.91 373.43999999999994 L 633.85 357.00999999999993 C 633.99 356.47999999999996 634.25 356.05999999999995 634.64 355.7199999999999 C 635.02 355.38999999999993 635.5 355.2199999999999 636.06 355.2199999999999 L 641 355.2199999999999 L 638.69 373.5399999999999 L 652.6500000000001 373.5399999999999 L 651.8600000000001 380.3099999999999 L 637.8400000000001 380.3099999999999 L 634.6400000000001 406.45999999999987 C 634.4600000000002 407.89999999999986 634.3300000000002 409.04999999999984 634.2500000000001 409.91999999999985 C 634.1600000000001 410.79999999999984 634.0900000000001 411.49999999999983 634.0400000000001 412.01999999999987 C 633.9900000000001 412.54999999999984 633.95 412.90999999999985 633.9300000000001 413.1199999999999 C 633.9100000000001 413.3299999999999 633.9000000000001 413.4899999999999 633.9000000000001 413.5899999999999 C 633.9000000000001 415.37999999999994 634.3100000000001 416.69999999999993 635.1300000000001 417.5499999999999 C 635.9500000000002 418.39999999999986 637.0800000000002 418.8399999999999 638.5200000000001 418.8399999999999 C 639.4300000000001 418.8399999999999 640.2300000000001 418.7099999999999 640.94 418.44999999999993 C 641.6400000000001 418.18999999999994 642.24 417.8999999999999 642.75 417.5799999999999 C 643.26 417.25999999999993 643.69 416.9799999999999 644.04 416.7099999999999 C 644.39 416.44999999999993 644.6999999999999 416.31999999999994 644.98 416.31999999999994 C 645.2600000000001 416.31999999999994 645.48 416.38999999999993 645.64 416.5299999999999 C 645.8 416.6699999999999 645.96 416.8999999999999 646.14 417.2099999999999 L 648.08 421.6699999999999 C 646.4000000000001 423.1699999999999 644.47 424.3599999999999 642.2800000000001 425.2099999999999 C 640.09 426.06999999999994 637.9000000000001 426.49999999999994 635.69 426.49999999999994 C 632.2900000000001 426.49999999999994 629.62 425.56999999999994 627.6600000000001 423.71999999999997 C 625.69 421.87 624.67 419.18 624.6 415.64 z" stroke-linecap="round" />
</g>
		<g transform="matrix(1 0 0 1 264.94 70.9)"  >
<path style="stroke: none; stroke-width: 1; stroke-dasharray: none; stroke-linecap: butt; stroke-dashoffset: 0; stroke-linejoin: miter; stroke-miterlimit: 4; fill: rgb(35,31,32); fill-rule: nonzero; opacity: 1;" vector-effect="non-scaling-stroke"  transform=" translate(-682.5, -399.08)" d="M 699.47 425.67 L 694.64 425.67 C 693.41 425.67 692.58 425.35 692.15 424.72 C 691.7199999999999 424.09000000000003 691.49 423.32000000000005 691.49 422.41 L 692.44 411.76000000000005 C 691.1800000000001 413.9800000000001 689.82 416.00000000000006 688.37 417.80000000000007 C 686.92 419.61000000000007 685.38 421.14000000000004 683.75 422.4100000000001 C 682.12 423.68000000000006 680.42 424.6600000000001 678.63 425.36000000000007 C 676.84 426.05000000000007 674.99 426.4000000000001 673.07 426.4000000000001 C 670.97 426.4000000000001 669.0600000000001 425.99000000000007 667.35 425.1700000000001 C 665.63 424.3500000000001 664.1700000000001 423.1400000000001 662.97 421.55000000000007 C 661.76 419.9600000000001 660.83 418.00000000000006 660.1600000000001 415.6700000000001 C 659.4900000000001 413.3400000000001 659.1600000000001 410.6700000000001 659.1600000000001 407.6600000000001 C 659.1600000000001 404.5100000000001 659.5500000000001 401.44000000000005 660.34 398.4500000000001 C 661.13 395.4600000000001 662.25 392.6300000000001 663.7 389.9700000000001 C 665.1500000000001 387.31000000000006 666.8900000000001 384.87000000000006 668.9200000000001 382.6500000000001 C 670.95 380.43000000000006 673.22 378.5000000000001 675.72 376.8800000000001 C 678.22 375.2500000000001 680.9100000000001 373.9900000000001 683.78 373.10000000000014 C 686.65 372.21000000000015 689.66 371.76000000000016 692.81 371.76000000000016 C 695.0899999999999 371.76000000000016 697.3 371.95000000000016 699.4499999999999 372.32000000000016 C 701.5999999999999 372.69000000000017 703.7299999999999 373.34000000000015 705.8299999999999 374.26000000000016 L 699.47 425.67 z M 676.58 418.63 C 678.2900000000001 418.63 679.97 418.1 681.62 417.05 C 683.26 416 684.82 414.54 686.29 412.68 C 687.7599999999999 410.82 689.13 408.61 690.41 406.04 C 691.6899999999999 403.47 692.8199999999999 400.66 693.8 397.59000000000003 L 696.06 379.61 C 695.29 378.99 694.53 378.68 693.78 378.68 C 693.03 378.68 692.28 378.68 691.55 378.68 C 689.4499999999999 378.68 687.42 379.02 685.4599999999999 379.7 C 683.4999999999999 380.38 681.66 381.33 679.9499999999999 382.55 C 678.2399999999999 383.77000000000004 676.68 385.23 675.28 386.92 C 673.88 388.61 672.68 390.47 671.68 392.5 C 670.68 394.53 669.9 396.68 669.3399999999999 398.97 C 668.78 401.26000000000005 668.4999999999999 403.6 668.4999999999999 406.01000000000005 C 668.49 414.43 671.19 418.63 676.58 418.63 z" stroke-linecap="round" />
</g>
		<g transform="matrix(1 0 0 1 310.42 58.83)"  >
<path style="stroke: none; stroke-width: 1; stroke-dasharray: none; stroke-linecap: butt; stroke-dashoffset: 0; stroke-linejoin: miter; stroke-miterlimit: 4; fill: rgb(35,31,32); fill-rule: nonzero; opacity: 1;" vector-effect="non-scaling-stroke"  transform=" translate(-727.97, -387)" d="M 718.68 425.67 L 728.0799999999999 348.34000000000003 L 737.27 348.34000000000003 L 727.87 425.67 L 718.68 425.67 z" stroke-linecap="round" />
</g>
</g>
</g>
</svg>